<svg width="360" height="80" viewBox="0 0 360 80" fill="none" xmlns="http://www.w3.org/2000/svg" role="img" aria-label="FantasyFC OS">
  <g transform="translate(8,8)">
    <circle cx="32" cy="32" r="27" fill="none" stroke="#ffffff" stroke-width="1.4" opacity="0.28"/>
    <g stroke="#ffffff" stroke-width="1.6" stroke-linecap="round" opacity="0.5">
      <line x1="32" y1="32" x2="32" y2="12"/>
      <line x1="32" y1="32" x2="51" y2="26"/>
      <line x1="32" y1="32" x2="44" y2="48"/>
      <line x1="32" y1="32" x2="20" y2="48"/>
      <line x1="32" y1="32" x2="13" y2="26"/>
      <line x1="32" y1="12" x2="51" y2="26"/>
      <line x1="51" y1="26" x2="44" y2="48"/>
      <line x1="44" y1="48" x2="20" y2="48"/>
      <line x1="20" y1="48" x2="13" y2="26"/>
      <line x1="13" y1="26" x2="32" y2="12"/>
    </g>
    <circle cx="32" cy="32" r="4.8" fill="#ff2d2d"/>
    <circle cx="32" cy="12" r="3.4" fill="#ffffff"/>
    <circle cx="51" cy="26" r="3" fill="#ffffff"/>
    <circle cx="44" cy="48" r="3" fill="#ffffff"/>
    <circle cx="20" cy="48" r="3" fill="#ffffff"/>
    <circle cx="13" cy="26" r="3" fill="#ffffff"/>
  </g>
  <text x="92" y="40" font-family="'Oswald', 'Archivo', system-ui, sans-serif" font-size="30" font-weight="700" letter-spacing="-0.5">
    <tspan fill="#ffffff">FANTASY</tspan><tspan fill="#ff2d2d">FC</tspan><tspan fill="#ffffff"> OS</tspan>
  </text>
  <text x="93" y="60" font-family="'Space Mono', ui-monospace, monospace" font-size="10" letter-spacing="2" fill="#ffffff" opacity="0.5">AGENTIC FANTASY FOOTBALL · X LAYER</text>
</svg>
