<svg width="64" height="64" viewBox="0 0 64 64" fill="none" xmlns="http://www.w3.org/2000/svg" role="img" aria-label="Agentic Fantasy Football OS">
  <circle cx="32" cy="32" r="27" fill="none" stroke="#3ef08b" stroke-width="1.4" opacity="0.22"/>
  <g stroke="#3ef08b" stroke-width="1.6" stroke-linecap="round" opacity="0.45">
    <line x1="32" y1="32" x2="32" y2="12"/>
    <line x1="32" y1="32" x2="51" y2="26"/>
    <line x1="32" y1="32" x2="44" y2="48"/>
    <line x1="32" y1="32" x2="20" y2="48"/>
    <line x1="32" y1="32" x2="13" y2="26"/>
    <line x1="32" y1="12" x2="51" y2="26"/>
    <line x1="51" y1="26" x2="44" y2="48"/>
    <line x1="44" y1="48" x2="20" y2="48"/>
    <line x1="20" y1="48" x2="13" y2="26"/>
    <line x1="13" y1="26" x2="32" y2="12"/>
  </g>
  <circle cx="32" cy="32" r="4.6" fill="#3ef08b"/>
  <circle cx="32" cy="12" r="3.6" fill="#ffd35c"/>
  <circle cx="51" cy="26" r="3" fill="#e9fff4"/>
  <circle cx="44" cy="48" r="3" fill="#2dd4ff"/>
  <circle cx="20" cy="48" r="3" fill="#e9fff4"/>
  <circle cx="13" cy="26" r="2.8" fill="#e9fff4" opacity="0.45"/>
</svg>
